<svg id="icon" height="15" viewBox="0 0 128 128" width="15" xmlns="http://www.w3.org/2000/svg"><path d="m24.707 70.954c1.411 3.888 3.508 8.106 6.458 10.564 6.542 5.452 7.944 7.243 10.359 18.147s13.63 1.713 13.63 1.713 3.349-2.259 8.963.9a9.219 9.219 0 0 0 5 .857c4.673-.234 13.459-2.175 20.618-12.427 10.281-14.72 16.278-19.082 14.565-32.167s-3.661-19.861-18.459-22.12c-10.088-1.539-18.4-6.882-22.674-10.125-.29-.221-.586-.43-.888-.629a15.94 15.94 0 0 0 -12.063-2.33 24.224 24.224 0 0 0 -10.676 5.409 27.35 27.35 0 0 0 -3.857 4 28.905 28.905 0 0 0 -4.543 8.284 102.958 102.958 0 0 1 -5.268 12.621 21.577 21.577 0 0 0 -2.234 6.726 21.832 21.832 0 0 0 1.069 10.577z" fill="#828a9e"/><g fill="#62667c"><path d="m48.768 96.914a1.246 1.246 0 0 0 1.245-1.214c.223-7.474-4-11.12-4.181-11.271a1.246 1.246 0 0 0 -1.61 1.9c.154.133 3.486 3.091 3.3 9.294a1.246 1.246 0 0 0 1.208 1.283z"/><path d="m31.735 66.591a1.261 1.261 0 0 0 .147-.009 1.246 1.246 0 0 0 1.092-1.382c-.755-6.424 1.327-9.608 1.348-9.639a1.246 1.246 0 0 0 -2.05-1.417c-.109.156-2.649 3.9-1.773 11.347a1.247 1.247 0 0 0 1.236 1.1z"/><path d="m81.063 66.591a1.247 1.247 0 0 0 1.215-1.53c-1.316-5.642-6.548-7.443-9.131-7.607a1.246 1.246 0 0 0 -.162 2.487c.242.017 5.647.465 6.865 5.686a1.247 1.247 0 0 0 1.213.964z"/><path d="m94.253 70.121a1.242 1.242 0 0 0 .826-.313c4.072-3.607 3.452-9.594 3.424-9.847a1.246 1.246 0 0 0 -2.477.275c.005.049.493 4.967-2.6 7.706a1.246 1.246 0 0 0 .827 2.179z"/><ellipse cx="66.629" cy="69.135" rx="4.154" ry="3.271"/><ellipse cx="62.475" cy="86.358" rx="5.104" ry="2.419" transform="matrix(.74 -.672 .672 .74 -41.826 64.4)"/><ellipse cx="81.489" cy="83.875" rx="4.414" ry="3.51" transform="matrix(.442 -.897 .897 .442 -29.752 119.941)"/><ellipse cx="42.585" cy="74.198" rx="4.881" ry="6.361" transform="matrix(.707 -.707 .707 .707 -39.993 51.845)"/><ellipse cx="52.075" cy="49.352" rx="8.152" ry="5.923" transform="matrix(.978 -.208 .208 .978 -9.127 11.912)"/><path d="m35.683 32.743c2.751 2.084 7 3.421 11.77 3.421 8.3 0 15.023-4.047 15.023-9.035a5.49 5.49 0 0 0 -.2-1.461 15.94 15.94 0 0 0 -12.063-2.33 24.224 24.224 0 0 0 -10.673 5.408 27.35 27.35 0 0 0 -3.857 3.997z"/><path d="m80.351 43.662c.468 0 .761-.022.815-.026a1.246 1.246 0 0 0 -.2-2.484c-.087.007-5.813.4-9.278-3.251a1.246 1.246 0 0 0 -1.807 1.717c3.476 3.66 8.51 4.044 10.47 4.044z"/></g></svg>