<svg height="512" viewBox="0 0 59 58" width="512" xmlns="http://www.w3.org/2000/svg"><g id="Page-1" fill="none" fill-rule="evenodd"><g id="055---Meteor" fill-rule="nonzero"><path id="Shape" d="m54.494 11.482 3.506-9.342c.2327823-.62293478.0505957-1.32494807-.4557352-1.75606799-.5063309-.43111993-1.2284111-.49905268-1.8062648-.16993201l-7.838 4.48c-.4886863.27905862-1.0889592.27693926-1.5756628-.00556313s-.7862708-.80268648-.7863372-1.36543687c.0002672-.51896031-.2543292-1.00496342-.6811221-1.30020512-.426793-.2952417-.9713587-.36207336-1.4568779-.17879488l-3.772 1.415c-.4760861.17844204-1.0094139.1120537-1.4272243-.17766006-.4178103-.28971376-.6669723-.76591147-.6667757-1.27433994v-.007c.001527-.56033171-.2994847-1.07786267-.7872866-1.35358581s-1.0864379-.26670532-1.5657134.02358581l-23.351 14.78.01.01c-7.66641592 4.6304704-11.85650002 13.366847-10.6685241 22.2440032s7.52775481 16.2043852 16.1419395 18.6561216c8.6141847 2.4517365 17.8621527-.4389672 23.5465846-7.3601248l.01.01 17.787-22.663c.5003883-.6284922.448725-1.5326-.12-2.1l-1.313-1.314c-.4231613-.422819-.5710545-1.0484616-.382-1.616l1.858-5.585c.1751206-.5252782.0623072-1.1039049-.297311-1.5249264-.3596183-.4210215-.9134909-.6229145-1.459689-.5320736l-.714.119c-.5559045.0908437-1.1181317-.1211336-1.4756842-.556379s-.4563503-1.0279282-.2593158-1.555621z" fill="#f3d55b"/><path id="Shape" d="m23.5 55c-.613 0-1.238-.028-1.854-.082-8.8188568-.8009021-16.12665389-7.173793-18.11982758-15.8017093-1.99317369-8.6279162 1.77885813-17.5604082 9.35282758-22.1482907l2.175-1.322-.042-.042 20.6-13.041c.3533475 1.63296498 1.7972434 2.79874028 3.468 2.8.4261759-.00000422.8488866-.07655279 1.248-.226l3.251-1.22c.123778.7600361.4924835 1.45882089 1.05 1.99 1.1436781 1.10379214 2.8789958 1.31938234 4.258.529l6.827-3.9-3.093 8.244c-.4112942 1.0977901-.2590507 2.3273966.4075646 3.2917254.6666152.9643289 1.7631315 1.5411844 2.9354354 1.5442746.2010621.0005293.4017988-.0161987.6-.05h.024l-1.641 4.923c-.4332693 1.2857572-.0977927 2.7060063.865 3.662l1.049 1.05-17.261 21.987-.285.339c-3.8851696 4.7354375-9.689734 7.4782456-15.815 7.473z" fill="#f0c419"/><path id="Shape" d="m39.728 38.1-.845 1.724c-.2839255.5789697-.5119589 1.1837102-.681 1.806-.9916838 3.6602876-3.9395019 6.4635103-7.645 7.27l-.617.134c-.259.056-.515.123-.769.2l-4.052 1.22c-1.0716814.3231356-2.1894405.4667413-3.308.425l-1.442-.054c-2.3129767-.0862852-4.5271451-.9598163-6.276-2.476l-2.377-2.061-1.866-1.571c-2.30656413-1.936067-3.63542035-4.7955986-3.628-7.807v-.5c.00234212-1.2614819.23972698-2.5114827.7-3.686l1.572-4c.09666667-.2466667.20333333-.4896667.32-.729l1.037-2.135c1.0568063-2.1758682 2.8558106-3.902884 5.073-4.87l2.525-1.1 4.159-1.576c1.2492006-.4737673 2.5796171-.6963529 3.915-.655l1.246.038c2.3566776.0728007 4.6146674.9629867 6.387 2.518l1.544 1.353c.6125088.5372553 1.1581019 1.1463051 1.625 1.814l2.225 3.182c.6120249.8744031 1.0821468 1.8399586 1.393 2.861l.379 1.242c.7508265 2.463445.538526 5.1200611-.594 7.433z" fill="#7f8c8d"/><g fill="#56595e"><circle id="Oval" cx="14.5" cy="36.5" r="2.5"/><circle id="Oval" cx="21" cy="27" r="4"/><circle id="Oval" cx="33" cy="32" r="3"/><circle id="Oval" cx="24" cy="42" r="4"/></g><path id="Shape" d="m32 15c-.4408769.0005403-.8300902-.2877099-.9581268-.709586-.1280366-.421876.0353166-.8778265.4021268-1.122414l9-6c.297245-.1982824.6776931-.22292459.9980331-.0646441.3203401.1582805.5319049.4754371.555.832s-.1457881.6983617-.4430331.8966441l-9 6c-.1640634.1093972-.3568084.167847-.554.168z" fill="#e57e25"/><path id="Shape" d="m43 26c-.3937523.0001053-.7509145-.2308641-.912353-.59-.1614384-.3591358-.0970986-.7795785.164353-1.074l8-9c.2334351-.2808025.6013685-.4120396.9598179-.3423548.3584495.0696849.650416.3292107.7616454.6770182.1112294.3478074.0240344.7285897-.2274633.9933366l-8 9c-.1893748.2132565-.4607967.3355055-.746.336z" fill="#e57e25"/><path id="Shape" d="m37.918 19.9c-.4208745-.0001893-.7965839-.2638798-.9398396-.6596237-.1432557-.3957438-.0233921-.8388273.2998396-1.1083763l14.262-11.884c.2745586-.22882861.6503398-.29379969.9857905-.17043927s.5796079.41631097.6405.7685-.0707319.71011066-.3452905.93893927l-14.263 11.885c-.1799121.1490812-.4063478.2304565-.64.23z" fill="#e57e25"/></g></g></svg>